<?xml version="1.0" encoding="UTF-8"?>
<svg id="Capa_2" data-name="Capa 2" xmlns="http://www.w3.org/2000/svg" xmlns:xlink="http://www.w3.org/1999/xlink" viewBox="0 0 1920 1213">
  <defs>
    <style>
      .cls-1 {
        fill: #fff;
      }

      .cls-2 {
        fill: none;
        stroke: #fff;
        stroke-miterlimit: 10;
        stroke-width: 1.5px;
      }
    </style>
  </defs>
  <g id="Capa_1-2" data-name="Capa 1">
    <image width="1920" height="1213" xlink:href="cuerpo-vivo/img/p_rec.jpg"/>
    <g>
      <g>
        <path class="cls-1" d="M806.21,687.76v-25.67c0-4.83-1.45-5.88-4.91-6.28v-.48c3.22-.32,6.76-1.53,9.25-2.82h.4l-.64,9.25c1.13-1.77,2.41-3.38,3.94-4.91,2.66-2.74,5.47-4.35,8.37-4.35,1.85,0,2.9,1.05,2.9,2.58s-1.21,2.66-2.74,2.66c-1.85,0-2.82-1.29-4.43-1.29-2.58,0-5.39,2.74-7.89,6.68v24.63c0,3.06,1.13,3.3,7.08,3.62v.56h-16.9v-.56c4.43-.32,5.55-.56,5.55-3.62Z"/>
        <path class="cls-1" d="M826.81,672.71c0-11.75,7.73-20.2,18.11-20.2,8.93,0,14.41,5.39,14.57,14.57h-28.25c-.16,1.13-.24,2.33-.24,3.62,0,11.67,6.76,18.91,15.21,18.91,5.88,0,11.03-3.78,14.41-10.3l.48.32c-3.38,8.85-10.06,13.12-16.82,13.12-9.66,0-17.46-7.48-17.46-20.04ZM853.05,665.79c1.37,0,1.77-.4,1.77-1.93,0-4.67-3.38-10.14-10.3-10.14s-11.59,4.35-13.12,12.07h21.65Z"/>
        <path class="cls-1" d="M864.95,673.03c0-12.23,8.37-20.52,19.31-20.52,8.53,0,14.16,5.31,14.16,8.29,0,1.37-.97,2.25-2.17,2.25-1.29,0-1.93-.8-2.58-2.25-2.25-5.31-5.47-7.08-9.98-7.08-8.37,0-14.49,6.28-14.49,16.98,0,11.67,7.08,18.91,15.69,18.91,6.2,0,11.83-3.86,15.29-10.3l.48.32c-3.54,9.01-10.78,13.12-17.78,13.12-9.9,0-17.95-7.73-17.95-19.72Z"/>
        <path class="cls-1" d="M903.82,673.11c0-12.39,8.53-20.6,19.39-20.6,10.3,0,18.75,7.89,18.75,19.64,0,12.39-8.45,20.6-19.39,20.6-10.3,0-18.75-7.89-18.75-19.64ZM923.62,691.54c7.73,0,13.76-6.52,13.76-17.54,0-11.59-6.44-20.28-15.21-20.28-7.73,0-13.68,6.52-13.68,17.54,0,11.59,6.36,20.28,15.13,20.28Z"/>
        <path class="cls-1" d="M975.68,687.76v-21.65c0-7.16-3.38-10.54-8.93-10.54-4.02,0-7.48,2.33-11.11,5.15v27.04c0,3.06,1.13,3.3,5.15,3.62v.56h-14.97v-.56c4.43-.32,5.55-.56,5.55-3.62v-25.67c0-4.83-1.45-5.88-4.91-6.28v-.48c3.22-.32,6.76-1.53,9.25-2.82h.4l-.64,7.4c3.94-3.7,8.13-7.08,14.08-7.08,6.44,0,10.38,4.18,10.38,12.55v22.37c0,3.06,1.13,3.3,5.47,3.62v.56h-14.97v-.56c4.1-.32,5.23-.56,5.23-3.62Z"/>
        <path class="cls-1" d="M988.79,673.11c0-12.39,8.53-20.6,19.39-20.6,10.3,0,18.75,7.89,18.75,19.64,0,12.39-8.45,20.6-19.39,20.6-10.3,0-18.75-7.89-18.75-19.64ZM1008.59,691.54c7.73,0,13.76-6.52,13.76-17.54,0-11.59-6.44-20.28-15.21-20.28-7.73,0-13.68,6.52-13.68,17.54,0,11.59,6.36,20.28,15.13,20.28Z"/>
        <path class="cls-1" d="M1032.09,673.03c0-12.23,8.37-20.52,19.31-20.52,8.53,0,14.16,5.31,14.16,8.29,0,1.37-.97,2.25-2.17,2.25-1.29,0-1.93-.8-2.58-2.25-2.25-5.31-5.47-7.08-9.98-7.08-8.37,0-14.49,6.28-14.49,16.98,0,11.67,7.08,18.91,15.69,18.91,6.2,0,11.83-3.86,15.29-10.3l.48.32c-3.54,9.01-10.78,13.12-17.78,13.12-9.9,0-17.95-7.73-17.95-19.72Z"/>
        <path class="cls-1" d="M1070.95,672.71c0-11.75,7.73-20.2,18.11-20.2,8.93,0,14.41,5.39,14.57,14.57h-28.25c-.16,1.13-.24,2.33-.24,3.62,0,11.67,6.76,18.91,15.21,18.91,5.88,0,11.03-3.78,14.41-10.3l.48.32c-3.38,8.85-10.06,13.12-16.82,13.12-9.66,0-17.46-7.48-17.46-20.04ZM1097.19,665.79c1.37,0,1.77-.4,1.77-1.93,0-4.67-3.38-10.14-10.3-10.14s-11.59,4.35-13.12,12.07h21.65Z"/>
      </g>
      <circle class="cls-2" cx="952.95" cy="668.44" r="250.1"/>
    </g>
  </g>
</svg>