<?xml version="1.0" encoding="UTF-8"?>
<svg id="Capa_2" data-name="Capa 2" xmlns="http://www.w3.org/2000/svg" viewBox="0 0 448.34 448.34">
  <defs>
    <style>
      .cls-1 {
        fill: #fff;
      }

      .cls-2 {
        fill: none;
        stroke: #fff;
        stroke-miterlimit: 10;
        stroke-width: 1.5px;
      }
    </style>
  </defs>
  <g id="Capa_1-2" data-name="Capa 1">
    <g>
      <g>
        <path class="cls-1" d="M86.47,241.42v-22.93c0-4.31-1.29-5.25-4.38-5.61v-.43c2.88-.29,6.04-1.37,8.27-2.52h.36l-.58,8.27c1.01-1.58,2.16-3.02,3.52-4.39,2.37-2.44,4.89-3.88,7.48-3.88,1.65,0,2.59.93,2.59,2.3s-1.08,2.37-2.44,2.37c-1.65,0-2.52-1.15-3.95-1.15-2.3,0-4.82,2.44-7.04,5.97v22c0,2.73,1.01,2.95,6.33,3.23v.5h-15.1v-.5c3.95-.29,4.96-.5,4.96-3.23Z"/>
        <path class="cls-1" d="M104.87,227.98c0-10.49,6.9-18.04,16.17-18.04,7.98,0,12.87,4.82,13.01,13.01h-25.23c-.14,1.01-.22,2.08-.22,3.23,0,10.42,6.04,16.89,13.59,16.89,5.25,0,9.85-3.38,12.87-9.2l.43.29c-3.02,7.91-8.99,11.72-15.02,11.72-8.63,0-15.6-6.68-15.6-17.9ZM128.31,221.8c1.22,0,1.58-.36,1.58-1.73,0-4.17-3.02-9.06-9.2-9.06s-10.35,3.88-11.72,10.78h19.34Z"/>
        <path class="cls-1" d="M138.95,228.27c0-10.93,7.48-18.33,17.25-18.33,7.62,0,12.65,4.74,12.65,7.4,0,1.22-.86,2.01-1.94,2.01-1.15,0-1.73-.72-2.3-2.01-2.01-4.74-4.89-6.33-8.91-6.33-7.48,0-12.94,5.61-12.94,15.17,0,10.42,6.33,16.89,14.02,16.89,5.54,0,10.57-3.45,13.66-9.2l.43.29c-3.16,8.05-9.63,11.72-15.89,11.72-8.84,0-16.03-6.9-16.03-17.61Z"/>
        <path class="cls-1" d="M173.67,228.34c0-11.07,7.62-18.4,17.32-18.4,9.2,0,16.75,7.04,16.75,17.54,0,11.07-7.55,18.4-17.32,18.4-9.2,0-16.75-7.04-16.75-17.54ZM191.35,244.8c6.9,0,12.29-5.82,12.29-15.67,0-10.35-5.75-18.11-13.59-18.11-6.9,0-12.22,5.82-12.22,15.67,0,10.35,5.68,18.11,13.51,18.11Z"/>
        <path class="cls-1" d="M237.86,241.42v-19.34c0-6.4-3.02-9.42-7.98-9.42-3.59,0-6.69,2.08-9.92,4.6v24.15c0,2.73,1.01,2.95,4.6,3.23v.5h-13.37v-.5c3.95-.29,4.96-.5,4.96-3.23v-22.93c0-4.31-1.29-5.25-4.38-5.61v-.43c2.88-.29,6.04-1.37,8.27-2.52h.36l-.58,6.61c3.52-3.31,7.26-6.33,12.58-6.33,5.75,0,9.27,3.74,9.27,11.21v19.98c0,2.73,1.01,2.95,4.89,3.23v.5h-13.37v-.5c3.67-.29,4.67-.5,4.67-3.23Z"/>
        <path class="cls-1" d="M249.58,228.34c0-11.07,7.62-18.4,17.32-18.4,9.2,0,16.75,7.04,16.75,17.54,0,11.07-7.55,18.4-17.32,18.4-9.2,0-16.75-7.04-16.75-17.54ZM267.26,244.8c6.9,0,12.29-5.82,12.29-15.67,0-10.35-5.75-18.11-13.59-18.11-6.9,0-12.22,5.82-12.22,15.67,0,10.35,5.68,18.11,13.51,18.11Z"/>
        <path class="cls-1" d="M288.25,228.27c0-10.93,7.48-18.33,17.25-18.33,7.62,0,12.65,4.74,12.65,7.4,0,1.22-.86,2.01-1.94,2.01-1.15,0-1.73-.72-2.3-2.01-2.01-4.74-4.89-6.33-8.91-6.33-7.48,0-12.94,5.61-12.94,15.17,0,10.42,6.33,16.89,14.02,16.89,5.54,0,10.57-3.45,13.66-9.2l.43.29c-3.16,8.05-9.63,11.72-15.89,11.72-8.84,0-16.03-6.9-16.03-17.61Z"/>
        <path class="cls-1" d="M322.97,227.98c0-10.49,6.9-18.04,16.17-18.04,7.98,0,12.87,4.82,13.01,13.01h-25.23c-.14,1.01-.22,2.08-.22,3.23,0,10.42,6.04,16.89,13.59,16.89,5.25,0,9.85-3.38,12.87-9.2l.43.29c-3.02,7.91-8.99,11.72-15.02,11.72-8.63,0-15.6-6.68-15.6-17.9ZM346.41,221.8c1.22,0,1.58-.36,1.58-1.73,0-4.17-3.02-9.06-9.2-9.06s-10.35,3.88-11.72,10.78h19.34Z"/>
      </g>
      <circle class="cls-2" cx="224.17" cy="224.17" r="223.42"/>
    </g>
  </g>
</svg>