<?xml version="1.0" encoding="UTF-8"?>
<svg id="Capa_2" data-name="Capa 2" xmlns="http://www.w3.org/2000/svg" viewBox="0 0 448.34 448.34">
  <defs>
    <style>
      .cls-1 {
        fill: #fff;
      }

      .cls-2 {
        fill: none;
        stroke: #fff;
        stroke-miterlimit: 10;
        stroke-width: 1.5px;
      }
    </style>
  </defs>
  <g id="Capa_1-2" data-name="Capa 1">
    <g>
      <g>
        <path class="cls-1" d="M116.08,241.42v-22.93c0-4.31-1.29-5.25-4.38-5.61v-.43c2.88-.29,6.04-1.37,8.27-2.52h.36l-.58,8.27c1.01-1.58,2.16-3.02,3.52-4.39,2.37-2.44,4.89-3.88,7.48-3.88,1.65,0,2.59.93,2.59,2.3s-1.08,2.37-2.44,2.37c-1.65,0-2.52-1.15-3.95-1.15-2.3,0-4.82,2.44-7.04,5.97v22c0,2.73,1.01,2.95,6.33,3.23v.5h-15.1v-.5c3.95-.29,4.96-.5,4.96-3.23Z"/>
        <path class="cls-1" d="M134.48,227.98c0-10.49,6.9-18.04,16.17-18.04,7.98,0,12.87,4.82,13.01,13.01h-25.23c-.14,1.01-.22,2.08-.22,3.23,0,10.42,6.04,16.89,13.59,16.89,5.25,0,9.85-3.38,12.87-9.2l.43.29c-3.02,7.91-8.99,11.72-15.02,11.72-8.63,0-15.6-6.68-15.6-17.9ZM157.92,221.8c1.22,0,1.58-.36,1.58-1.73,0-4.17-3.02-9.06-9.2-9.06s-10.35,3.88-11.72,10.78h19.34Z"/>
        <path class="cls-1" d="M169.35,243.87l-.72-7.62h.43c1.65,5.61,5.03,8.63,9.78,8.63,5.03,0,8.41-3.02,8.41-7.04,0-3.09-1.87-5.82-7.12-8.05l-2.52-1.08c-6.04-2.59-7.84-5.82-7.84-9.49,0-5.61,4.31-9.27,9.7-9.27,3.45,0,5.97.72,8.34,1.8l.58,6.69h-.43c-1.58-4.74-5.1-7.48-8.55-7.48s-6.97,2.3-6.97,6.18c0,3.02,1.22,5.39,6.97,7.84l2.52,1.08c5.82,2.52,8.05,5.89,8.05,9.78,0,5.97-4.74,10.06-11.21,10.06-4.03,0-7.19-.93-9.42-2.01Z"/>
        <path class="cls-1" d="M197.74,238.4v-25.52h-4.31v-.65c4.53-1.29,6.11-4.96,7.48-9.34h.65v7.76h11.86l-.43,2.23h-11.43v24.51c0,4.6,2.3,6.18,5.68,6.18,2.44,0,4.6-.86,6.54-2.08l.36.36c-2.66,2.52-6.04,4.03-9.27,4.03-4.1,0-7.12-2.16-7.12-7.48Z"/>
        <path class="cls-1" d="M234.69,239.63c-3.74,4.03-7.04,6.11-10.71,6.11-4.31,0-7.4-2.88-7.4-7.04,0-3.31,1.87-5.68,9.63-7.98l8.48-2.52v-7.91c0-5.03-2.23-7.62-6.04-7.62-3.23,0-7.98,2.66-7.98,4.17,0,.58.58,2.01.58,3.02,0,1.37-.86,2.08-2.01,2.08-1.01,0-1.94-.58-1.94-1.73,0-1.37,1.29-3.45,3.38-5.32,2.8-2.59,6.61-4.67,9.99-4.67,4.74,0,7.84,2.88,7.84,9.27v20.13c0,2.16.79,3.74,2.59,3.74,1.58,0,2.88-1.37,4.03-3.16l.43.29c-1.22,2.44-3.31,5.25-6.69,5.25s-4.17-2.95-4.17-6.11ZM225.99,243.22c2.8,0,5.61-1.73,8.7-4.6v-9.49l-7.55,2.37c-4.74,1.51-6.76,3.16-6.76,6.18,0,3.45,2.3,5.54,5.61,5.54Z"/>
        <path class="cls-1" d="M250.79,234.38v-18.76c0-3.16-1.15-4.17-4.6-4.46v-.5c2.37,0,5.89-.29,8.55-.72h.36c-.43,2.73-.43,5.53-.43,8.55v15.24c0,6.4,3.02,9.42,7.91,9.42,3.59,0,6.69-2.3,9.92-5.25v-22.28c0-3.16-1.15-4.17-5.46-4.46v-.5c3.23,0,6.76-.29,9.42-.72h.36c-.43,2.73-.43,5.53-.43,8.55v20.27c0,4.03.65,4.67,4.53,4.67v.43c-3.09.22-6.11,1.01-8.48,2.01h-.36l.58-7.26c-3.52,3.67-7.26,6.97-12.58,6.97-5.75,0-9.27-3.74-9.27-11.21Z"/>
        <path class="cls-1" d="M288.24,241.42v-22.93c0-4.31-1.29-5.25-4.38-5.61v-.43c2.88-.29,6.04-1.37,8.27-2.52h.36l-.58,8.27c1.01-1.58,2.16-3.02,3.52-4.39,2.37-2.44,4.89-3.88,7.48-3.88,1.65,0,2.59.93,2.59,2.3s-1.08,2.37-2.44,2.37c-1.65,0-2.52-1.15-3.95-1.15-2.3,0-4.82,2.44-7.04,5.97v22c0,2.73,1.01,2.95,6.33,3.23v.5h-15.1v-.5c3.95-.29,4.96-.5,4.96-3.23Z"/>
        <path class="cls-1" d="M324.98,239.63c-3.74,4.03-7.04,6.11-10.71,6.11-4.31,0-7.4-2.88-7.4-7.04,0-3.31,1.87-5.68,9.63-7.98l8.48-2.52v-7.91c0-5.03-2.23-7.62-6.04-7.62-3.23,0-7.98,2.66-7.98,4.17,0,.58.58,2.01.58,3.02,0,1.37-.86,2.08-2.01,2.08-1.01,0-1.94-.58-1.94-1.73,0-1.37,1.29-3.45,3.38-5.32,2.8-2.59,6.61-4.67,9.99-4.67,4.74,0,7.84,2.88,7.84,9.27v20.13c0,2.16.79,3.74,2.59,3.74,1.58,0,2.88-1.37,4.03-3.16l.43.29c-1.22,2.44-3.31,5.25-6.69,5.25s-4.17-2.95-4.17-6.11ZM316.28,243.22c2.8,0,5.61-1.73,8.7-4.6v-9.49l-7.55,2.37c-4.74,1.51-6.76,3.16-6.76,6.18,0,3.45,2.3,5.54,5.61,5.54Z"/>
      </g>
      <circle class="cls-2" cx="224.17" cy="224.17" r="223.42"/>
    </g>
  </g>
</svg>